# xmcd
# Track frame offsets:
# 182
# 12352
# 27710
# 37807
# 57520
# 78352
# 93557
# 108100
# 127932
# 138492
#
# Disc length: 2010 seconds
# Revision: 0
# Processed by: cddbd v1.4PL0 Copyright (c) Steve Scherf et al.
# Submitted via: VisiTrax 2.9.5.180 - For more info visit www.synapsa.com
#
DISCID=7c07d80a
DTITLE=Ira Allen - Most requested vol.1
DYEAR=1994
DGENRE=Country
TTITLE0=Heartaches by the number
TTITLE1=Hangin' on (just enough to keep me)
TTITLE2=Playboy
TTITLE3=Medley
TTITLE4=Medley
TTITLE5=The hell bound train
TTITLE6=Tennessee stud
TTITLE7=Medley
TTITLE8=Ghost riders in the sky
TTITLE9=Gypsies, tramps and thieves
EXTD=
EXTT0=
EXTT1=
EXTT2=
EXTT3=
EXTT4=
EXTT5=
EXTT6=
EXTT7=
EXTT8=
EXTT9=
PLAYORDER=
